# xmcd
#
# Track frame offsets:
#	150
#	33033
#	52547
#	73827
#	93882
#	121211
#	144154
#	184682
#	206274
#	226620
#	261271
#
# Disc length: 3882 seconds
#
# Revision: 1
# Processed by: cddbd v1.5.2PL0 Copyright (c) Steve Scherf et al.
# Submitted via: audiograbber 1.83.01
#
DISCID=7f0f280b
DTITLE=Ghost Road - Live at the Basement
DYEAR=2007
DGENRE=Blues
TTITLE0=Fake Disguise
TTITLE1=Drugs and Piss
TTITLE2=Pickles and Jam
TTITLE3=Bad Luck
TTITLE4=Hey Old Friend
TTITLE5=Solid Ground
TTITLE6=How Can You Save Me From The Blues
TTITLE7=Let's Dance
TTITLE8=Long Lost Dreams
TTITLE9=Breakaway
TTITLE10=Lantana
EXTD=
EXTT0=
EXTT1=
EXTT2=
EXTT3=
EXTT4=
EXTT5=
EXTT6=
EXTT7=
EXTT8=
EXTT9=
EXTT10=
PLAYORDER=
